<?xml version="1.0" standalone="no"?>
<!DOCTYPE svg PUBLIC "-//W3C//DTD SVG 20010904//EN"
 "http://www.w3.org/TR/2001/REC-SVG-20010904/DTD/svg10.dtd">
<svg version="1.0" xmlns="http://www.w3.org/2000/svg"
 width="500.000000pt" height="500.000000pt" viewBox="0 0 500.000000 500.000000"
 preserveAspectRatio="xMidYMid meet">
<metadata>
Created by potrace 1.14, written by Peter Selinger 2001-2017
</metadata>
<g transform="translate(0.000000,500.000000) scale(0.100000,-0.100000)"
fill="#000000" stroke="none">
<path d="M0 2500 l0 -2500 2500 0 2500 0 0 2500 0 2500 -2500 0 -2500 0 0
-2500z m4830 5 l0 -2335 -2335 0 -2335 0 0 2335 0 2335 2335 0 2335 0 0 -2335z"/>
<path d="M300 2505 l0 -2195 2195 0 2195 0 0 2195 0 2195 -2195 0 -2195 0 0
-2195z m3275 1980 c33 -9 102 -37 154 -62 191 -92 342 -289 376 -491 l7 -42
-206 0 -206 0 -26 51 c-35 70 -103 133 -172 160 -46 19 -77 23 -162 23 -98 1
-110 -1 -172 -31 -119 -56 -192 -154 -223 -298 -18 -84 -19 -141 -4 -221 25
-138 122 -269 236 -321 69 -31 181 -41 264 -24 110 23 222 118 251 214 l11 37
209 0 209 0 -7 -37 c-41 -225 -175 -415 -362 -511 -148 -77 -349 -113 -513
-93 -130 17 -194 36 -309 93 -91 45 -117 64 -195 143 -103 103 -145 168 -187
290 -38 111 -48 176 -49 311 0 247 81 449 241 604 104 101 258 182 405 214 92
20 343 15 430 -9z m-1740 -5 c163 -39 302 -151 373 -302 45 -95 60 -148 68
-251 17 -193 -73 -418 -209 -528 -125 -100 -233 -129 -494 -129 l-183 0 0
-210 0 -210 -215 0 -215 0 0 818 c0 450 3 822 8 826 12 13 810 0 867 -14z
m-352 -2343 c230 -66 370 -241 384 -482 9 -165 -41 -301 -153 -413 l-63 -63
144 -234 c103 -166 145 -243 145 -265 l0 -30 -214 0 -214 0 -129 220 -128 220
-102 0 -103 0 0 -220 0 -220 -190 0 -190 0 0 756 0 756 378 -5 c309 -3 387 -7
435 -20z m1627 -152 l0 -175 -275 0 -275 0 0 -105 0 -105 255 0 255 0 0 -170
0 -170 -255 0 -255 0 0 -135 0 -135 285 0 285 0 0 -170 0 -170 -480 0 -480 0
0 748 c0 412 3 752 7 755 3 4 215 7 470 7 l463 0 0 -175z m1290 0 l0 -175
-270 0 -270 0 0 -165 0 -165 240 0 240 0 0 -170 0 -170 -240 0 -240 0 0 -245
0 -245 -200 0 -200 0 0 748 c0 412 3 752 7 755 3 4 215 7 470 7 l463 0 0 -175z"/>
<path d="M1390 3885 l0 -235 169 0 c158 0 170 1 202 23 142 96 131 370 -18
433 -23 10 -79 14 -193 14 l-160 0 0 -235z"/>
<path d="M1050 1626 l0 -186 164 0 c153 0 165 1 196 23 98 66 102 251 6 320
-29 20 -44 22 -198 25 l-168 3 0 -185z"/>
</g>
</svg>
